<?xml version="1.0" encoding="UTF-8" standalone="no"?>
<!DOCTYPE svg PUBLIC "-//W3C//DTD SVG 1.1//EN" "http://www.w3.org/Graphics/SVG/1.1/DTD/svg11.dtd">
<svg width="100%" height="100%" viewBox="0 0 1280 1280" version="1.1" xmlns="http://www.w3.org/2000/svg" xmlns:xlink="http://www.w3.org/1999/xlink" xml:space="preserve" xmlns:serif="http://www.serif.com/" style="fill-rule:evenodd;clip-rule:evenodd;stroke-linejoin:round;stroke-miterlimit:2;">
    <g transform="matrix(1,0,0,1,-3112,-1459)">
        <g id="icon1" transform="matrix(1,0,0,1,-0.0640926,-0.689125)">
            <rect x="3112.06" y="1459.69" width="1279.04" height="1279.04" style="fill:none;"/>
            <g transform="matrix(2.41685,0,0,2.92479,773.656,1227.68)">
                <g transform="matrix(2.3107,0,0,1.90941,-882.352,-11542.3)">
                    <path d="M927.309,6097.92C928.435,6098.06 929.539,6098.33 930.599,6098.73C932.53,6099.46 934.201,6100.57 935.612,6102.07C937.228,6103.75 939.272,6104.96 941.524,6105.57C948.994,6107.65 956.197,6110.59 962.982,6114.33C965.45,6115.72 968.226,6116.47 971.057,6116.51C973.534,6116.55 975.884,6117.24 978.105,6118.61C978.44,6118.81 978.762,6119.04 979.072,6119.28C985.607,6124.38 991.497,6130.25 996.627,6136.76C997.327,6137.65 997.915,6138.62 998.379,6139.65C999.229,6141.54 999.625,6143.5 999.565,6145.56C999.519,6147.89 1000.11,6150.19 1001.27,6152.21C1005.08,6158.96 1008.1,6166.14 1010.25,6173.59C1011.01,6176.31 1012.44,6178.8 1014.42,6180.83C1016.14,6182.61 1017.31,6184.77 1017.92,6187.3C1018.01,6187.68 1018.08,6188.07 1018.13,6188.46C1019.14,6196.68 1019.16,6205 1018.18,6213.23C1018.05,6214.36 1017.77,6215.46 1017.37,6216.52C1016.64,6218.45 1015.53,6220.12 1014.03,6221.53C1012.35,6223.15 1011.14,6225.19 1010.54,6227.44C1008.46,6234.91 1005.52,6242.12 1001.77,6248.9C1000.38,6251.37 999.633,6254.15 999.592,6256.98C999.553,6259.45 998.86,6261.8 997.496,6264.03C997.29,6264.36 997.066,6264.68 996.824,6264.99C991.728,6271.53 985.856,6277.42 979.348,6282.55C978.457,6283.25 977.484,6283.84 976.449,6284.3C974.568,6285.15 972.6,6285.55 970.545,6285.49C968.213,6285.44 965.913,6286.03 963.892,6287.19C957.139,6291 949.967,6294.02 942.518,6296.16C939.792,6296.93 937.3,6298.36 935.269,6300.34C933.49,6302.06 931.338,6303.23 928.803,6303.84C928.421,6303.93 928.034,6304 927.644,6304.05C919.42,6305.06 911.103,6305.08 902.874,6304.1C901.749,6303.97 900.644,6303.69 899.585,6303.29C897.654,6302.56 895.982,6301.45 894.571,6299.95C892.955,6298.27 890.911,6297.06 888.66,6296.46C881.189,6294.38 873.986,6291.44 867.201,6287.69C864.733,6286.3 861.958,6285.55 859.127,6285.51C856.65,6285.47 854.3,6284.78 852.078,6283.42C851.744,6283.21 851.421,6282.99 851.112,6282.74C844.576,6277.65 838.686,6271.78 833.557,6265.27C832.857,6264.38 832.268,6263.4 831.804,6262.37C830.955,6260.49 830.559,6258.52 830.618,6256.47C830.665,6254.13 830.074,6251.83 828.911,6249.81C825.099,6243.06 822.085,6235.89 819.938,6228.44C819.175,6225.71 817.741,6223.22 815.768,6221.19C814.044,6219.41 812.873,6217.26 812.266,6214.72C812.175,6214.34 812.105,6213.95 812.058,6213.56C811.04,6205.34 811.027,6197.02 812.002,6188.79C812.137,6187.67 812.409,6186.56 812.812,6185.51C813.542,6183.57 814.653,6181.9 816.148,6180.49C817.83,6178.88 819.039,6176.83 819.646,6174.58C821.726,6167.11 824.666,6159.91 828.415,6153.12C829.802,6150.65 830.551,6147.88 830.592,6145.05C830.63,6142.57 831.324,6140.22 832.687,6138C832.893,6137.66 833.118,6137.34 833.36,6137.03C838.456,6130.5 844.327,6124.61 850.835,6119.48C851.727,6118.78 852.7,6118.19 853.734,6117.72C855.616,6116.87 857.584,6116.48 859.638,6116.54C861.97,6116.58 864.271,6115.99 866.292,6114.83C873.045,6111.02 880.217,6108.01 887.665,6105.86C890.392,6105.09 892.884,6103.66 894.914,6101.69C896.693,6099.96 898.845,6098.79 901.38,6098.19C901.762,6098.1 902.149,6098.03 902.539,6097.98C910.764,6096.96 919.081,6096.95 927.309,6097.92Z" style="fill:rgb(24,194,255);"/>
                </g>
                <g transform="matrix(1.47622,0,0,1.21985,604.241,-390.624)">
                    <path d="M577.776,525.157C582.256,534.971 594.98,578.01 586.798,586.548C578.145,595.576 565.969,601.2 552.49,601.2C544.526,601.2 537.016,599.24 530.422,595.77L530.385,595.751C507.668,583.887 480.583,583.887 457.866,595.751L457.83,595.77C451.235,599.24 443.725,601.2 435.761,601.2C409.534,601.2 388.24,579.907 388.24,553.679C388.24,527.452 409.534,506.158 435.761,506.158C443.725,506.158 451.235,508.118 457.829,511.589L457.866,511.608C480.583,523.471 507.668,523.471 530.385,511.607L530.421,511.588C537.016,508.118 544.526,506.158 552.49,506.158C558.835,506.158 564.892,507.405 570.429,509.666C577.101,512.391 574.975,519.021 577.776,525.157Z" style="fill:rgb(85,227,234);"/>
                </g>
                <g transform="matrix(2.30564,-0.126315,0.152863,1.90523,-1825.63,-11400.8)">
                    <path d="M927.683,6094.81C929.061,6094.97 930.414,6095.3 931.711,6095.8C934.092,6096.7 936.153,6098.07 937.891,6099.91C939.109,6101.17 940.647,6102.08 942.34,6102.54L942.365,6102.54C950.071,6104.69 957.501,6107.72 964.5,6111.59L964.521,6111.6C966.532,6112.73 968.794,6113.34 971.102,6113.37L971.105,6113.37C974.142,6113.42 977.024,6114.26 979.747,6115.93L979.75,6115.94C980.184,6116.2 980.603,6116.49 981.001,6116.81C987.736,6122.06 993.806,6128.11 999.091,6134.81L999.094,6134.82C999.951,6135.91 1000.67,6137.1 1001.24,6138.37C1002.29,6140.68 1002.77,6143.1 1002.7,6145.64C1002.67,6147.4 1003.12,6149.13 1003.99,6150.65L1004,6150.67C1007.94,6157.64 1011.05,6165.03 1013.26,6172.72L1013.27,6172.74C1013.89,6174.96 1015.06,6176.99 1016.67,6178.65L1016.67,6178.65C1018.78,6180.83 1020.23,6183.46 1020.97,6186.57L1020.97,6186.57C1021.09,6187.07 1021.18,6187.57 1021.24,6188.07C1022.29,6196.55 1022.3,6205.12 1021.3,6213.6L1021.3,6213.6C1021.13,6214.98 1020.8,6216.33 1020.31,6217.63C1019.4,6220.01 1018.03,6222.07 1016.19,6223.81C1014.93,6225.03 1014.02,6226.57 1013.57,6228.26L1013.56,6228.28C1011.42,6235.99 1008.38,6243.42 1004.51,6250.42L1004.5,6250.44C1003.37,6252.45 1002.76,6254.71 1002.73,6257.02L1002.73,6257.03C1002.68,6260.06 1001.84,6262.94 1000.17,6265.67L1000.17,6265.67C999.901,6266.1 999.61,6266.52 999.298,6266.92C994.047,6273.66 987.997,6279.73 981.29,6285.01L981.287,6285.01C980.196,6285.87 979.004,6286.59 977.738,6287.16C975.422,6288.2 973,6288.69 970.459,6288.62C968.706,6288.59 966.977,6289.04 965.457,6289.91L965.434,6289.93C958.469,6293.86 951.071,6296.97 943.387,6299.18L943.365,6299.19C941.142,6299.81 939.111,6300.98 937.456,6302.59L937.453,6302.59C935.273,6304.7 932.64,6306.15 929.534,6306.89L929.53,6306.89C929.034,6307.01 928.531,6307.1 928.03,6307.16C919.554,6308.21 910.984,6308.22 902.505,6307.22L902.5,6307.22C901.123,6307.05 899.77,6306.72 898.473,6306.23C896.091,6305.32 894.031,6303.95 892.292,6302.11C891.074,6300.85 889.537,6299.94 887.843,6299.49L887.818,6299.48C880.112,6297.34 872.682,6294.3 865.684,6290.44L865.663,6290.42C863.652,6289.29 861.389,6288.68 859.082,6288.65L859.078,6288.65C856.042,6288.6 853.16,6287.76 850.437,6286.09L850.434,6286.09C849.999,6285.82 849.58,6285.53 849.182,6285.22C842.448,6279.97 836.378,6273.92 831.093,6267.21L831.09,6267.21C830.232,6266.11 829.511,6264.92 828.943,6263.66C827.898,6261.34 827.41,6258.92 827.481,6256.38C827.512,6254.63 827.066,6252.9 826.192,6251.38L826.179,6251.35C822.247,6244.39 819.138,6236.99 816.923,6229.31L816.917,6229.28C816.294,6227.06 815.126,6225.03 813.518,6223.38L813.515,6223.37C811.402,6221.19 809.958,6218.56 809.214,6215.45L809.213,6215.45C809.095,6214.95 809.005,6214.45 808.944,6213.95C807.895,6205.47 807.881,6196.9 808.886,6188.43L808.886,6188.42C809.052,6187.04 809.385,6185.69 809.878,6184.39C810.778,6182.01 812.15,6179.95 813.991,6178.21C815.253,6176.99 816.16,6175.46 816.617,6173.76L816.623,6173.74C818.769,6166.03 821.801,6158.6 825.668,6151.6L825.68,6151.58C826.811,6149.57 827.421,6147.31 827.454,6145L827.454,6145C827.501,6141.96 828.342,6139.08 830.013,6136.36L830.015,6136.35C830.283,6135.92 830.574,6135.5 830.885,6135.1C836.137,6128.37 842.187,6122.3 848.893,6117.01L848.897,6117.01C849.988,6116.15 851.18,6115.43 852.446,6114.86C854.762,6113.82 857.184,6113.33 859.724,6113.4C861.478,6113.43 863.207,6112.99 864.727,6112.11L864.75,6112.1C871.715,6108.17 879.113,6105.06 886.796,6102.84L886.819,6102.84C889.041,6102.21 891.072,6101.05 892.728,6099.44L892.73,6099.44C894.911,6097.32 897.543,6095.88 900.65,6095.13L900.654,6095.13C901.15,6095.02 901.652,6094.93 902.154,6094.86C910.629,6093.82 919.199,6093.8 927.679,6094.81L927.683,6094.81ZM990.092,6133.86C989.076,6132.72 988.034,6131.61 986.967,6130.52C981.283,6141.75 969.284,6149.1 955.945,6148.21C938.126,6147.03 924.619,6131.61 925.801,6113.79C926.092,6109.39 927.252,6105.25 929.103,6101.53C928.401,6101.29 927.675,6101.13 926.938,6101.04C926.18,6100.95 925.422,6100.87 924.663,6100.79C922.894,6104.7 921.784,6108.98 921.484,6113.5C920.145,6133.7 935.458,6151.19 955.659,6152.53C970.228,6153.49 983.385,6145.8 990.092,6133.86ZM983.952,6127.58C981.772,6125.54 979.501,6123.59 977.142,6121.75L977.139,6121.75C976.922,6121.58 976.696,6121.42 976.462,6121.28C974.742,6120.23 972.926,6119.68 971.011,6119.65C967.662,6119.6 964.378,6118.72 961.457,6117.08C954.891,6113.45 947.921,6110.61 940.699,6108.59C937.9,6107.84 935.359,6106.33 933.35,6104.24L933.33,6104.22C933.091,6103.97 932.841,6103.73 932.582,6103.5C931.016,6106.71 930.035,6110.27 929.785,6114.05C928.749,6129.67 940.59,6143.19 956.209,6144.23C968.35,6145.03 979.224,6138.06 983.952,6127.58ZM956.626,6123.84C959.486,6124.03 961.655,6126.5 961.465,6129.36C961.276,6132.23 958.799,6134.39 955.938,6134.2C953.077,6134.01 950.909,6131.54 951.098,6128.68C951.288,6125.82 953.765,6123.65 956.626,6123.84ZM833.751,6256.72C833.73,6258.19 834.019,6259.61 834.613,6260.96C849.417,6257.04 860.764,6244.04 861.833,6227.92C862.24,6221.78 861.11,6215.9 858.773,6210.64L858.77,6210.63C853.002,6197.54 854.002,6182.46 861.448,6170.24L861.451,6170.24C864.462,6165.33 866.359,6159.65 866.766,6153.51C867.604,6140.87 861.924,6129.3 852.609,6122.07C851.446,6122.99 850.304,6123.94 849.184,6124.91C857.862,6131.23 863.212,6141.73 862.45,6153.23C862.118,6158.24 860.661,6162.9 858.34,6167C858.16,6167.32 857.878,6167.78 857.783,6167.95L857.768,6167.97C857.656,6168.16 857.325,6168.71 857.112,6169.08C849.749,6181.9 848.702,6197.4 854.269,6211.1C854.447,6211.53 854.729,6212.18 854.823,6212.4L854.834,6212.43C854.909,6212.61 855.133,6213.12 855.273,6213.47C857.025,6217.83 857.848,6222.64 857.517,6227.64C856.58,6241.76 846.689,6253.18 833.751,6256.72ZM937.071,6170.41L936.956,6170.34C936.994,6170.36 937.032,6170.39 937.071,6170.41ZM937.071,6170.41C936.59,6170.15 935.231,6169.34 934.268,6168.89C931.15,6167.42 927.708,6166.49 924.061,6166.25C908.442,6165.22 894.92,6177.06 893.884,6192.68C892.849,6208.3 904.689,6221.82 920.309,6222.86C924.576,6223.14 928.687,6222.46 932.428,6221.01C932.859,6220.84 933.489,6220.57 933.706,6220.48L933.734,6220.46C934.097,6220.31 935.166,6219.85 935.889,6219.57C950.524,6213.9 966.965,6215.14 980.603,6222.98C980.972,6223.19 982.628,6224.18 983.091,6224.44C983.386,6224.6 983.683,6224.75 983.984,6224.9C987.24,6226.52 990.865,6227.53 994.719,6227.79C998.843,6228.06 1003.48,6227.81 1007.66,6226.09C1008.46,6223.5 1009.9,6221.15 1011.86,6219.27L1011.88,6219.25C1013.03,6218.17 1013.88,6216.89 1014.44,6215.41L1014.44,6215.4C1014.75,6214.58 1014.96,6213.73 1015.07,6212.86C1016.01,6204.88 1016,6196.82 1015.01,6188.84L1015.01,6188.84C1014.98,6188.57 1014.93,6188.3 1014.87,6188.03C1014.39,6186.07 1013.5,6184.4 1012.17,6183.02C1009.83,6180.62 1008.13,6177.67 1007.23,6174.44C1007.09,6173.97 1006.95,6173.49 1006.81,6173.02C1004.2,6172.02 1001.4,6171.38 998.471,6171.19C994.572,6170.93 990.803,6171.47 987.327,6172.68C986.569,6172.94 985.479,6173.4 985.069,6173.57L985.051,6173.58C984.735,6173.71 983.803,6174.11 983.174,6174.36C969.678,6179.68 954.615,6179.1 941.618,6172.87C940.081,6172.14 937.857,6170.84 937.101,6170.42L937.071,6170.41ZM939.011,6166.92C939.743,6167.32 941.871,6168.57 943.344,6169.27C955.343,6175.02 969.25,6175.55 981.71,6170.64C982.315,6170.41 983.209,6170.02 983.513,6169.89C983.494,6169.9 983.475,6169.91 983.456,6169.92L983.572,6169.87C983.984,6169.7 985.188,6169.19 986.02,6168.9C989.986,6167.53 994.286,6166.91 998.735,6167.2C1000.98,6167.35 1003.15,6167.73 1005.23,6168.3C1004.63,6166.66 1003.99,6165.03 1003.31,6163.42C1001.91,6163.16 1000.48,6162.98 999.022,6162.89C992.885,6162.48 986.998,6163.61 981.739,6165.95L981.733,6165.95C968.643,6171.72 953.559,6170.72 941.344,6163.27L941.339,6163.27C936.434,6160.26 930.748,6158.36 924.612,6157.95C904.411,6156.61 886.923,6171.93 885.584,6192.13C884.245,6212.33 899.558,6229.82 919.758,6231.15C925.895,6231.56 931.782,6230.43 937.041,6228.1L937.047,6228.09C950.137,6222.32 965.221,6223.32 977.435,6230.77L977.441,6230.77C982.345,6233.78 988.031,6235.68 994.168,6236.09C997.774,6236.33 1001.29,6236.04 1004.65,6235.28C1005.22,6233.79 1005.76,6232.28 1006.25,6230.77C1002.32,6231.84 998.209,6232.02 994.454,6231.77C990.057,6231.48 985.922,6230.32 982.205,6228.47C981.862,6228.3 981.522,6228.13 981.186,6227.94C980.707,6227.68 978.995,6226.66 978.614,6226.44C966.022,6219.21 950.843,6218.06 937.331,6223.3C936.637,6223.56 935.61,6224.01 935.261,6224.15L935.242,6224.16C935.01,6224.26 934.336,6224.55 933.875,6224.73C929.605,6226.39 924.914,6227.16 920.044,6226.84C902.226,6225.66 888.719,6210.23 889.9,6192.41C891.081,6174.6 906.507,6161.09 924.325,6162.27C928.487,6162.55 932.413,6163.6 935.972,6165.28C937.008,6165.77 938.476,6166.63 938.982,6166.9L939.011,6166.92ZM939.011,6166.92L939.128,6166.99C939.09,6166.96 939.051,6166.94 939.011,6166.92ZM919.47,6291.51L917.802,6290.33C915.741,6285.69 914.747,6280.5 915.106,6275.09C916.287,6257.27 931.713,6243.77 949.531,6244.95C966.955,6246.1 980.256,6260.88 979.733,6278.19C981.181,6276.98 982.594,6275.73 983.97,6274.43C982.618,6256.53 968.253,6241.85 949.818,6240.63C929.617,6239.29 912.129,6254.61 910.79,6274.81C910.383,6280.94 911.513,6286.83 913.85,6292.09L913.852,6292.1C915.218,6295.2 916.205,6298.41 916.816,6301.67C918.272,6301.64 919.727,6301.58 921.181,6301.49C920.521,6297.7 919.399,6293.96 917.811,6290.35L919.469,6291.51L919.47,6291.51ZM917.811,6290.35C918.306,6291.44 919.307,6291.51 919.472,6291.51L919.469,6291.51C918.747,6291.45 918.111,6291.01 917.811,6290.35ZM919.472,6291.51L919.505,6291.54L919.472,6291.51L919.472,6291.51ZM919.472,6291.51C919.487,6291.51 919.495,6291.51 919.495,6291.51L919.47,6291.51L919.472,6291.51ZM846.146,6127.65C842.427,6131.15 838.979,6134.93 835.834,6138.96L835.832,6138.96C835.662,6139.18 835.505,6139.41 835.36,6139.64C834.305,6141.36 833.759,6143.18 833.729,6145.09C833.681,6148.44 832.796,6151.73 831.157,6154.65C827.53,6161.21 824.685,6168.18 822.674,6175.4C821.918,6178.2 820.413,6180.74 818.322,6182.75L818.302,6182.77C817.157,6183.85 816.306,6185.14 815.747,6186.61L815.745,6186.62C815.433,6187.44 815.222,6188.3 815.118,6189.17C814.172,6197.14 814.185,6205.2 815.172,6213.18L815.172,6213.18C815.206,6213.46 815.254,6213.73 815.318,6213.99C815.788,6215.96 816.686,6217.63 818.018,6219C820.353,6221.4 822.05,6224.35 822.956,6227.58C825.034,6234.78 827.951,6241.73 831.635,6248.25C832.431,6249.64 833.011,6251.13 833.362,6252.67C844.377,6249.37 852.727,6239.51 853.532,6227.37C853.823,6222.99 853.103,6218.78 851.568,6214.95C851.437,6214.63 851.227,6214.15 851.157,6213.98L851.147,6213.96C851.049,6213.73 850.756,6213.06 850.571,6212.6C844.54,6197.77 845.674,6180.98 853.65,6167.09C853.872,6166.7 854.216,6166.13 854.332,6165.94L854.344,6165.92C854.433,6165.77 854.697,6165.33 854.866,6165.03C856.9,6161.44 858.175,6157.35 858.466,6152.96C859.154,6142.58 854.158,6133.13 846.146,6127.65ZM842.649,6228.04C845.51,6228.23 847.679,6230.71 847.489,6233.57C847.299,6236.43 844.823,6238.6 841.962,6238.41C839.101,6238.22 836.933,6235.74 837.122,6232.88C837.312,6230.02 839.788,6227.85 842.649,6228.04ZM847.393,6156.49C850.254,6156.68 852.423,6159.16 852.233,6162.02C852.043,6164.88 849.567,6167.05 846.706,6166.86C843.845,6166.67 841.676,6164.19 841.866,6161.33C842.056,6158.47 844.532,6156.3 847.393,6156.49ZM827.988,6190.19C830.849,6190.38 833.018,6192.86 832.828,6195.72C832.638,6198.58 830.162,6200.75 827.301,6200.56C824.44,6200.37 822.271,6197.89 822.461,6195.03C822.651,6192.17 825.127,6190 827.988,6190.19ZM836.927,6264.46C841.684,6270.32 847.086,6275.63 853.041,6280.27L853.045,6280.27C853.261,6280.44 853.488,6280.6 853.722,6280.74C855.442,6281.8 857.258,6282.35 859.172,6282.37C862.522,6282.42 865.806,6283.31 868.727,6284.95C875.293,6288.57 882.263,6291.42 889.484,6293.43C892.284,6294.19 894.825,6295.69 896.834,6297.78L896.853,6297.8C897.934,6298.95 899.215,6299.8 900.694,6300.36L900.701,6300.36C901.521,6300.67 902.375,6300.88 903.246,6300.99C906.402,6301.36 909.572,6301.58 912.744,6301.66C912.183,6298.95 911.336,6296.29 910.199,6293.71C907.608,6287.88 906.355,6281.35 906.806,6274.54C908.291,6252.14 927.682,6235.16 950.082,6236.65C969.395,6237.93 984.679,6252.52 987.572,6270.88C989.963,6268.39 992.226,6265.79 994.349,6263.06L994.352,6263.06C994.522,6262.84 994.679,6262.62 994.823,6262.38C995.878,6260.66 996.425,6258.85 996.455,6256.93C996.503,6253.58 997.387,6250.3 999.027,6247.38C1000.41,6244.87 1001.68,6242.3 1002.84,6239.69C999.94,6240.14 996.95,6240.28 993.904,6240.07C987.099,6239.62 980.794,6237.52 975.355,6234.18C964.257,6227.41 950.553,6226.51 938.659,6231.75C932.827,6234.34 926.299,6235.59 919.494,6235.14C897.095,6233.65 880.115,6214.26 881.6,6191.86C883.085,6169.46 902.476,6152.48 924.876,6153.97C931.681,6154.42 937.986,6156.53 943.425,6159.86C954.522,6166.63 968.227,6167.54 980.121,6162.3C985.953,6159.7 992.481,6158.45 999.286,6158.9C999.975,6158.95 1000.66,6159.01 1001.34,6159.09C1000.46,6157.29 999.533,6155.51 998.548,6153.77C997.103,6151.26 996.371,6148.4 996.428,6145.5L996.429,6145.47C996.475,6143.89 996.17,6142.39 995.52,6140.94L995.516,6140.94C995.158,6140.14 994.702,6139.39 994.161,6138.69C993.727,6138.15 993.287,6137.6 992.843,6137.06C985.207,6149.58 971.034,6157.55 955.395,6156.51C932.995,6155.03 916.015,6135.64 917.5,6113.24C917.799,6108.73 918.823,6104.44 920.45,6100.48C914.606,6100.17 908.742,6100.37 902.925,6101.09L902.92,6101.09C902.647,6101.13 902.376,6101.17 902.108,6101.24C900.146,6101.71 898.475,6102.61 897.101,6103.94C894.698,6106.27 891.75,6107.97 888.525,6108.88C881.318,6110.95 874.378,6113.87 867.85,6117.56C865.336,6119 862.475,6119.73 859.576,6119.68L859.548,6119.67C858.488,6119.64 857.458,6119.77 856.458,6120.06C865.949,6128.11 871.636,6140.41 870.75,6153.78C870.299,6160.58 868.195,6166.89 864.856,6172.32C858.091,6183.42 857.183,6197.13 862.423,6209.02C865.014,6214.85 866.268,6221.38 865.817,6228.19C864.663,6245.58 852.706,6259.71 836.927,6264.46ZM883.636,6259.02C886.497,6259.21 888.666,6261.68 888.476,6264.54C888.286,6267.4 885.81,6269.57 882.949,6269.38C880.088,6269.19 877.919,6266.72 878.109,6263.86C878.299,6260.99 880.775,6258.83 883.636,6259.02ZM897.669,6125.87C900.53,6126.06 902.699,6128.54 902.509,6131.4C902.32,6134.26 899.843,6136.43 896.982,6136.24C894.121,6136.05 891.953,6133.57 892.142,6130.71C892.332,6127.85 894.809,6125.69 897.669,6125.87ZM925.175,6301.17C925.87,6301.1 926.565,6301.02 927.259,6300.93L927.263,6300.93C927.536,6300.9 927.808,6300.85 928.075,6300.78C930.038,6300.32 931.708,6299.42 933.083,6298.09C935.485,6295.75 938.433,6294.05 941.658,6293.15C948.866,6291.07 955.805,6288.15 962.334,6284.47C964.848,6283.02 967.708,6282.29 970.608,6282.35L970.636,6282.35C972.21,6282.39 973.717,6282.09 975.158,6281.44L975.165,6281.44C975.265,6281.39 975.364,6281.35 975.463,6281.3C975.566,6280.58 975.643,6279.85 975.692,6279.11C976.727,6263.49 964.887,6249.97 949.267,6248.93C933.648,6247.9 920.126,6259.74 919.09,6275.36C918.776,6280.1 919.646,6284.65 921.451,6288.71L921.464,6288.74C923.235,6292.76 924.469,6296.93 925.175,6301.17ZM960.886,6272.58C963.747,6272.77 965.915,6275.24 965.726,6278.11C965.536,6280.97 963.059,6283.13 960.198,6282.94C957.338,6282.76 955.169,6280.28 955.359,6277.42C955.548,6274.56 958.025,6272.39 960.886,6272.58ZM936.975,6263.17C939.836,6263.36 942.005,6265.84 941.815,6268.7C941.625,6271.56 939.149,6273.73 936.288,6273.54C933.427,6273.35 931.259,6270.87 931.448,6268.01C931.638,6265.15 934.115,6262.98 936.975,6263.17Z" style="fill:rgb(0,33,62);"/>
                </g>
                <g transform="matrix(1.47622,0,0,1.21985,-137.626,-349.854)">
                    <path d="M933.843,496.896C944.807,496.896 953.709,505.798 953.709,516.762C953.709,527.726 944.807,536.628 933.843,536.628C922.879,536.628 913.977,527.726 913.977,516.762C913.977,505.798 922.879,496.896 933.843,496.896ZM1050.93,496.896C1061.89,496.896 1070.79,505.798 1070.79,516.762C1070.79,527.726 1061.89,536.628 1050.93,536.628C1039.96,536.628 1031.06,527.726 1031.06,516.762C1031.06,505.798 1039.96,496.896 1050.93,496.896ZM980.945,519.804C979.859,517.777 980.622,515.25 982.649,514.164C984.676,513.077 987.204,513.841 988.29,515.868C989.103,517.385 990.878,518.09 992.567,518.127C994.089,518.16 995.679,517.626 996.354,516.127C997.297,514.029 999.766,513.093 1001.86,514.036C1003.96,514.98 1004.9,517.448 1003.95,519.545C1001.83,524.265 997.174,526.563 992.385,526.458C987.763,526.357 983.169,523.955 980.945,519.804Z" style="fill:rgb(0,33,62);"/>
                </g>
                <g transform="matrix(0.6982,0,0,0.576945,598.457,-24.8229)">
                    <path d="M933.843,496.896C944.807,496.896 953.709,505.798 953.709,516.762C953.709,527.726 944.807,536.628 933.843,536.628C922.879,536.628 913.977,527.726 913.977,516.762C913.977,505.798 922.879,496.896 933.843,496.896ZM1180.85,496.896C1191.81,496.896 1200.71,505.798 1200.71,516.762C1200.71,527.726 1191.81,536.628 1180.85,536.628C1169.88,536.628 1160.98,527.726 1160.98,516.762C1160.98,505.798 1169.88,496.896 1180.85,496.896Z" style="fill:white;"/>
                </g>
            </g>
        </g>
    </g>
</svg>
