<?xml version="1.0" encoding="UTF-8" standalone="no"?>
<!DOCTYPE svg PUBLIC "-//W3C//DTD SVG 1.1//EN" "http://www.w3.org/Graphics/SVG/1.1/DTD/svg11.dtd">
<svg width="100%" height="100%" viewBox="0 0 2762 829" version="1.1" xmlns="http://www.w3.org/2000/svg" xmlns:xlink="http://www.w3.org/1999/xlink" xml:space="preserve" xmlns:serif="http://www.serif.com/" style="fill-rule:evenodd;clip-rule:evenodd;stroke-linejoin:round;stroke-miterlimit:2;">
    <g transform="matrix(1,0,0,1,-1178.34,-125.79)">
        <g transform="matrix(2.07705,0,0,1,0,0)">
            <g transform="matrix(2.67709,0,0,5.56046,-1533.8,-3958.52)">
                <g transform="matrix(3.8398,0,0,3.8398,-2523.95,-217.677)">
                    <path d="M892.162,255.483C892.662,254.75 892.912,253.933 892.912,253.033C892.912,252.333 892.779,251.708 892.512,251.158C892.245,250.608 891.904,250.141 891.487,249.758C891.07,249.375 890.604,249.091 890.087,248.908C889.57,248.725 889.062,248.633 888.562,248.633C887.862,248.633 887.195,248.791 886.562,249.108C885.929,249.425 885.395,249.9 884.962,250.533L877.312,261.533L869.662,250.533C869.229,249.9 868.695,249.425 868.062,249.108C867.429,248.791 866.762,248.633 866.062,248.633C865.562,248.633 865.054,248.725 864.537,248.908C864.02,249.091 863.554,249.375 863.137,249.758C862.72,250.141 862.379,250.608 862.112,251.158C861.845,251.708 861.712,252.333 861.712,253.033C861.712,253.933 861.962,254.75 862.462,255.483L872.962,270.633L872.962,281.733C872.962,282.966 873.387,284.008 874.237,284.858C875.087,285.708 876.112,286.133 877.312,286.133C878.512,286.133 879.545,285.708 880.412,284.858C881.279,284.008 881.712,282.966 881.712,281.733L881.712,270.633L892.162,255.483Z" style="fill:white;fill-rule:nonzero;"/>
                </g>
                <g transform="matrix(3.8398,0,0,3.8398,-2532.53,-217.677)">
                    <path d="M925.162,255.083C925.429,254.716 925.629,254.35 925.762,253.983C925.895,253.616 925.962,253.183 925.962,252.683C925.962,251.55 925.562,250.591 924.762,249.808C923.962,249.025 922.995,248.633 921.862,248.633L900.212,248.633C899.079,248.633 898.112,249.025 897.312,249.808C896.512,250.591 896.112,251.55 896.112,252.683C896.112,253.816 896.512,254.775 897.312,255.558C898.112,256.341 899.079,256.733 900.212,256.733L913.362,256.733L896.662,279.583C896.395,279.95 896.187,280.325 896.037,280.708C895.887,281.091 895.812,281.55 895.812,282.083C895.812,283.216 896.212,284.175 897.012,284.958C897.812,285.741 898.762,286.133 899.862,286.133L922.512,286.133C923.645,286.133 924.604,285.741 925.387,284.958C926.17,284.175 926.562,283.216 926.562,282.083C926.562,280.95 926.17,279.991 925.387,279.208C924.604,278.425 923.645,278.033 922.512,278.033L908.212,278.033L925.162,255.083Z" style="fill:white;fill-rule:nonzero;"/>
                </g>
                <g transform="matrix(3.8398,0,0,3.8398,-2543.94,-217.677)">
                    <path d="M959.562,255.083C959.829,254.716 960.029,254.35 960.162,253.983C960.295,253.616 960.362,253.183 960.362,252.683C960.362,251.55 959.962,250.591 959.162,249.808C958.362,249.025 957.395,248.633 956.262,248.633L934.612,248.633C933.479,248.633 932.512,249.025 931.712,249.808C930.912,250.591 930.512,251.55 930.512,252.683C930.512,253.816 930.912,254.775 931.712,255.558C932.512,256.341 933.479,256.733 934.612,256.733L947.762,256.733L931.062,279.583C930.795,279.95 930.587,280.325 930.437,280.708C930.287,281.091 930.212,281.55 930.212,282.083C930.212,283.216 930.612,284.175 931.412,284.958C932.212,285.741 933.162,286.133 934.262,286.133L956.912,286.133C958.045,286.133 959.004,285.741 959.787,284.958C960.57,284.175 960.962,283.216 960.962,282.083C960.962,280.95 960.57,279.991 959.787,279.208C959.004,278.425 958.045,278.033 956.912,278.033L942.612,278.033L959.562,255.083Z" style="fill:white;fill-rule:nonzero;"/>
                </g>
                <g transform="matrix(3.8398,0,0,3.8398,-2556.57,-217.677)">
                    <path d="M980.162,286.783C982.829,286.783 985.345,286.275 987.712,285.258C990.079,284.241 992.137,282.858 993.887,281.108C995.637,279.358 997.02,277.3 998.037,274.933C999.054,272.566 999.562,270.05 999.562,267.383C999.562,264.716 999.054,262.2 998.037,259.833C997.02,257.466 995.637,255.408 993.887,253.658C992.137,251.908 990.079,250.525 987.712,249.508C985.345,248.491 982.829,247.983 980.162,247.983C977.495,247.983 974.987,248.491 972.637,249.508C970.287,250.525 968.237,251.908 966.487,253.658C964.737,255.408 963.354,257.466 962.337,259.833C961.32,262.2 960.812,264.716 960.812,267.383C960.812,270.05 961.32,272.566 962.337,274.933C963.354,277.3 964.737,279.358 966.487,281.108C968.237,282.858 970.287,284.241 972.637,285.258C974.987,286.275 977.495,286.783 980.162,286.783ZM969.562,267.383C969.562,265.916 969.837,264.541 970.387,263.258C970.937,261.975 971.695,260.85 972.662,259.883C973.629,258.916 974.754,258.15 976.037,257.583C977.32,257.016 978.695,256.733 980.162,256.733C981.629,256.733 983.012,257.016 984.312,257.583C985.612,258.15 986.745,258.916 987.712,259.883C988.679,260.85 989.437,261.975 989.987,263.258C990.537,264.541 990.812,265.916 990.812,267.383C990.812,268.85 990.537,270.225 989.987,271.508C989.437,272.791 988.679,273.916 987.712,274.883C986.745,275.85 985.612,276.608 984.312,277.158C983.012,277.708 981.629,277.983 980.162,277.983C978.695,277.983 977.32,277.708 976.037,277.158C974.754,276.608 973.629,275.85 972.662,274.883C971.695,273.916 970.937,272.791 970.387,271.508C969.837,270.225 969.562,268.85 969.562,267.383Z" style="fill:white;fill-rule:nonzero;"/>
                </g>
            </g>
        </g>
    </g>
</svg>
